<svg xmlns="http://www.w3.org/2000/svg" width="19.513" height="19.461" viewBox="0 0 19.513 19.461">
  <path id="Subtraction_6" data-name="Subtraction 6" d="M14062.042,19788.2a2.269,2.269,0,0,1-1.214-.352,2.3,2.3,0,0,0,2.428,0A2.254,2.254,0,0,1,14062.042,19788.2Zm16.16-.012v0a2.258,2.258,0,0,0,1.358-.652A2.244,2.244,0,0,1,14078.2,19788.189Zm-.492,0a2.241,2.241,0,0,1-1.358-.656,2.258,2.258,0,0,0,1.358.652Zm-14.453-.34v0a2.37,2.37,0,0,0,.393-.314A2.206,2.206,0,0,1,14063.257,19787.85Zm-2.429,0a2.213,2.213,0,0,1-.393-.316,2.418,2.418,0,0,0,.394.314Zm17.13-.652a1.281,1.281,0,0,1-.9-.369l-7.057-7.057-7.057,7.057a1.285,1.285,0,0,1-1.8,0,1.294,1.294,0,0,1,0-1.8l7.062-7.059-7.062-7.057a1.27,1.27,0,0,1,.9-2.164v-.006a1.258,1.258,0,0,1,.9.367l7.057,7.057,7.057-7.057a1.275,1.275,0,0,1,1.8,1.8l-7.057,7.057,7.057,7.059a1.294,1.294,0,0,1,0,1.8A1.278,1.278,0,0,1,14077.958,19787.2Zm-11.174-9.227-6.349-6.35c-.043-.043-.089-.094-.136-.148.043.045.087.1.136.145l6.352,6.352h0Zm6.432,0h0l6.347-6.354a2.23,2.23,0,0,0,.252-.3,1.977,1.977,0,0,1-.252.3l-6.344,6.348Z" transform="translate(-14060.3 -19768.74)"/>
</svg>
