<svg width="516" height="148" viewBox="0 0 516 148" fill="none" xmlns="http://www.w3.org/2000/svg">
<path d="M28.457 4.29022C30.3903 1.60104 33.5459 0 36.9127 0H143.304C151.664 0 156.56 9.18483 151.76 15.8623L140.169 31.9843C138.236 34.6735 135.08 36.2745 131.713 36.2745H25.3221C16.962 36.2745 12.0658 27.0897 16.8664 20.4122L28.457 4.29022Z" fill="white"/>
<path d="M13.4811 60.153C15.4144 57.4638 18.5699 55.8627 21.9368 55.8627H128.328C136.688 55.8627 141.584 65.0476 136.784 71.725L125.193 87.847C123.26 90.5362 120.104 92.1373 116.738 92.1373H10.3462C1.98606 92.1373 -2.91009 82.9524 1.89053 76.275L13.4811 60.153Z" fill="white"/>
<path d="M13.4811 116.016C15.4144 113.327 18.5699 111.725 21.9368 111.725H128.328C136.688 111.725 141.584 120.91 136.784 127.588L125.193 143.71C123.26 146.399 120.104 148 116.738 148H10.3462C1.98606 148 -2.91009 138.815 1.89053 132.138L13.4811 116.016Z" fill="white"/>
<path d="M279.289 134.312H212.347C195.149 134.312 188.492 125.696 188.492 111.875V36.1255C188.492 22.304 195.149 13.5085 212.347 13.5085H278.179V37.023H215.49V62.153H274.296V85.6675H215.49V110.798H279.289V134.312Z" fill="white"/>
<path d="M338.712 136.646C316.336 136.646 298.399 127.491 290.447 110.259L313.008 99.3095C317.076 108.105 325.767 112.593 338.712 112.593C350.362 112.593 359.238 107.926 359.238 99.3095C359.238 89.2575 349.437 87.642 336.493 85.488C317.816 82.4365 292.481 75.9745 292.481 48.6905C292.481 27.5095 312.083 11.3545 337.787 11.3545C358.314 11.3545 376.066 20.509 384.018 37.741L361.457 48.6905C357.389 40.972 349.252 35.587 336.678 35.587C326.507 35.587 319.48 40.254 319.48 47.6135C319.48 57.3065 329.835 59.8195 343.335 62.153C361.827 65.2045 386.237 71.6665 386.237 99.13C386.237 120.85 365.156 136.646 338.712 136.646Z" fill="white"/>
<path d="M431.306 134.312H404.307V13.5085H431.306V62.153H447.209C448.688 58.3835 451.092 54.614 454.051 50.665L484.193 13.5085H514.891L479.385 57.845C474.392 64.307 471.804 68.7945 471.804 73.282C471.804 77.7695 474.392 82.0775 479.385 88.5395L516 134.312H482.899L454.051 97.5145C451.092 93.745 448.873 89.9755 447.394 86.206H431.306V134.312Z" fill="white"/>
</svg>
