<svg width="33" height="31" viewBox="0 0 33 31" fill="none" xmlns="http://www.w3.org/2000/svg">
<g clip-path="url(#clip0_3_214)">
<path d="M6.4266 0.898626C6.82925 0.335353 7.48643 0 8.18763 0H30.3452C32.0864 0 33.1061 1.92385 32.1063 3.32251L29.6924 6.69941C29.2897 7.26269 28.6325 7.59804 27.9313 7.59804H5.77372C4.03259 7.59804 3.01289 5.67419 4.01269 4.27553L6.4266 0.898626Z" fill="#2C4046"/>
<path d="M3.30764 12.5996C3.71029 12.0363 4.36747 11.701 5.06867 11.701H27.2263C28.9674 11.701 29.9871 13.6248 28.9873 15.0235L26.5734 18.4004C26.1708 18.9637 25.5136 19.299 24.8124 19.299H2.65476C0.913627 19.299 -0.10607 17.3752 0.893731 15.9765L3.30764 12.5996Z" fill="#2C4046"/>
<path d="M3.30764 24.3006C3.71029 23.7373 4.36747 23.402 5.06867 23.402H27.2263C28.9674 23.402 29.9871 25.3258 28.9873 26.7245L26.5734 30.1014C26.1708 30.6646 25.5136 31 24.8124 31H2.65476C0.913627 31 -0.10607 29.0761 0.893731 27.6775L3.30764 24.3006Z" fill="#2C4046"/>
</g>
<defs>
<clipPath id="clip0_3_214">
<rect width="32" height="31" fill="white" transform="translate(0.5)"/>
</clipPath>
</defs>
</svg>
