<svg width="17" height="17" viewBox="0 0 17 17" fill="none" xmlns="http://www.w3.org/2000/svg">
<g clip-path="url(#clip0_3_215)">
<path d="M8.68363 3.92733C6.33608 3.92733 4.44253 5.77274 4.44253 8.06061C4.44253 10.3485 6.33608 12.1939 8.68363 12.1939C11.0312 12.1939 12.9247 10.3485 12.9247 8.06061C12.9247 5.77274 11.0312 3.92733 8.68363 3.92733ZM8.68363 10.7478C7.16658 10.7478 5.92636 9.54269 5.92636 8.06061C5.92636 6.57853 7.16289 5.37344 8.68363 5.37344C10.2044 5.37344 11.4409 6.57853 11.4409 8.06061C11.4409 9.54269 10.2007 10.7478 8.68363 10.7478ZM14.0874 3.75826C14.0874 4.29425 13.6445 4.72233 13.0982 4.72233C12.5482 4.72233 12.109 4.29066 12.109 3.75826C12.109 3.22586 12.5519 2.79419 13.0982 2.79419C13.6445 2.79419 14.0874 3.22586 14.0874 3.75826ZM16.8964 4.73672C16.8336 3.4453 16.531 2.30136 15.5602 1.35887C14.5931 0.416385 13.4193 0.121408 12.0942 0.0566572C10.7285 -0.0188857 6.63506 -0.0188857 5.26934 0.0566572C3.94792 0.117811 2.77414 0.412788 1.80338 1.35528C0.832614 2.29776 0.533633 3.4417 0.467193 4.73312C0.389679 6.06412 0.389679 10.0535 0.467193 11.3845C0.529942 12.6759 0.832614 13.8199 1.80338 14.7623C2.77414 15.7048 3.94423 15.9998 5.26934 16.0646C6.63506 16.1401 10.7285 16.1401 12.0942 16.0646C13.4193 16.0034 14.5931 15.7084 15.5602 14.7623C16.5273 13.8199 16.8299 12.6759 16.8964 11.3845C16.9739 10.0535 16.9739 6.06771 16.8964 4.73672ZM15.132 12.8126C14.8441 13.5177 14.2868 14.0609 13.5596 14.3451C12.4707 14.7659 9.88694 14.6688 8.68363 14.6688C7.48032 14.6688 4.89285 14.7623 3.80766 14.3451C3.0842 14.0645 2.52684 13.5213 2.23524 12.8126C1.80338 11.7514 1.90304 9.23332 1.90304 8.06061C1.90304 6.88789 1.80707 4.3662 2.23524 3.3086C2.52315 2.60353 3.08051 2.06034 3.80766 1.77616C4.89654 1.35528 7.48032 1.4524 8.68363 1.4524C9.88694 1.4524 12.4744 1.35887 13.5596 1.77616C14.2831 2.05674 14.8404 2.59993 15.132 3.3086C15.5639 4.3698 15.4642 6.88789 15.4642 8.06061C15.4642 9.23332 15.5639 11.755 15.132 12.8126Z" fill="#74929B"/>
</g>
<defs>
<clipPath id="clip0_3_215">
<rect width="16.5455" height="16.1212" fill="white" transform="translate(0.409058)"/>
</clipPath>
</defs>
</svg>
