<svg width="18" height="17" viewBox="0 0 18 17" fill="none" xmlns="http://www.w3.org/2000/svg">
<g clip-path="url(#clip0_3_216)">
<path d="M16.3181 0H2.13259C1.48259 0 0.954468 0.52178 0.954468 1.16231V14.9589C0.954468 15.5994 1.48259 16.1212 2.13259 16.1212H16.3181C16.9681 16.1212 17.4999 15.5994 17.4999 14.9589V1.16231C17.4999 0.52178 16.9681 0 16.3181 0ZM5.95504 13.8182H3.50276V6.12462H5.95873V13.8182H5.95504ZM4.7289 5.07386C3.94225 5.07386 3.30702 4.45133 3.30702 3.68845C3.30702 2.92557 3.94225 2.30303 4.7289 2.30303C5.51185 2.30303 6.15077 2.92557 6.15077 3.68845C6.15077 4.45492 5.51555 5.07386 4.7289 5.07386ZM15.1474 13.8182H12.6951V10.0758C12.6951 9.18333 12.6766 8.03542 11.4209 8.03542C10.1431 8.03542 9.94737 9.00701 9.94737 10.011V13.8182H7.49509V6.12462H9.84765V7.17538H9.88089C10.2096 6.57083 11.011 5.9339 12.2039 5.9339C14.6857 5.9339 15.1474 7.52803 15.1474 9.60076V13.8182Z" fill="#74929B"/>
</g>
<defs>
<clipPath id="clip0_3_216">
<rect width="16.5455" height="16.1212" fill="white" transform="translate(0.954468)"/>
</clipPath>
</defs>
</svg>
